<mxfile host="65bd71144e">
    <diagram id="wL9S3QFr2yHo7Lkve_38" name="PÃ¡gina-1">
        <mxGraphModel dx="1054" dy="608" grid="1" gridSize="10" guides="1" tooltips="1" connect="1" arrows="1" fold="1" page="1" pageScale="1" pageWidth="827" pageHeight="1169" math="0" shadow="0">
            <root>
                <mxCell id="0"/>
                <mxCell id="1" parent="0"/>
                <mxCell id="6" style="edgeStyle=orthogonalEdgeStyle;html=1;exitX=1;exitY=0.5;exitDx=0;exitDy=0;entryX=0.625;entryY=0.2;entryDx=0;entryDy=0;entryPerimeter=0;fontColor=#FFFFFF;" edge="1" parent="1" source="2" target="3">
                    <mxGeometry relative="1" as="geometry"/>
                </mxCell>
                <mxCell id="2" value="Hello" style="whiteSpace=wrap;html=1;fillColor=#000099;strokeColor=#FFFFFF;fontColor=#FFFFFF;" vertex="1" parent="1">
                    <mxGeometry x="350" y="280" width="120" height="60" as="geometry"/>
                </mxCell>
                <mxCell id="3" value="World" style="ellipse;shape=cloud;whiteSpace=wrap;html=1;strokeColor=#FFFFFF;fillColor=#00FF00;" vertex="1" parent="1">
                    <mxGeometry x="520" y="360" width="120" height="80" as="geometry"/>
                </mxCell>
            </root>
        </mxGraphModel>
    </diagram>
</mxfile>